<svg version="1.1" id="Layer_1" xmlns="http://www.w3.org/2000/svg" xmlns:xlink="http://www.w3.org/1999/xlink" x="0px" y="0px"
	 width="100%" viewBox="0 0 1819 548" enable-background="new 0 0 1819 548" xml:space="preserve">
<path fill="#FFFFFF" opacity="1.000000" stroke="none" 
	d="
M1820.000000,547.000000 
	C1819.667603,547.666687 1819.453979,548.783752 1818.978882,548.909058 
	C1817.888916,549.196350 1816.671631,549.000000 1815.505981,549.000000 
	C1665.311523,549.000000 1515.116943,549.000000 1364.591309,548.630371 
	C1379.284180,545.902710 1389.624756,533.760315 1389.917358,517.892273 
	C1390.267456,498.900208 1390.005859,479.896759 1389.986694,460.898224 
	C1389.985352,459.637390 1389.793213,458.376740 1389.680420,457.000000 
	C1385.001099,457.000000 1380.661865,457.234528 1376.360352,456.932251 
	C1372.278198,456.645386 1370.829224,457.888702 1370.900879,462.211731 
	C1371.155029,477.539642 1371.070557,492.874908 1370.954468,508.206146 
	C1370.922363,512.444885 1370.664795,516.737793 1369.927612,520.902649 
	C1368.705811,527.805603 1363.170776,532.784546 1356.532349,532.940247 
	C1349.076782,533.115112 1342.963989,530.399780 1341.110718,522.541992 
	C1339.886719,517.353271 1339.185791,511.935852 1339.092041,506.606049 
	C1338.828369,491.611847 1338.921265,476.609283 1339.059937,461.611725 
	C1339.091553,458.212463 1338.152344,456.668610 1334.541626,456.949158 
	C1331.394165,457.193726 1328.191406,457.231140 1325.051636,456.941742 
	C1321.079346,456.575623 1319.871094,458.025848 1319.915283,462.020325 
	C1320.111206,479.683441 1319.690063,497.357544 1320.121338,515.012268 
	C1320.362915,524.906128 1322.793457,534.640930 1330.950562,541.165833 
	C1335.283447,544.631836 1340.940552,546.442261 1346.000000,549.000000 
	C1139.307495,549.000000 932.614990,549.000000 725.642334,548.668213 
	C741.568604,545.763184 755.205383,528.701233 755.134644,512.618225 
	C754.822937,441.679016 755.001099,370.737701 754.993591,299.797119 
	C754.993408,298.136749 755.087158,296.444824 754.817078,294.820831 
	C751.707397,276.117279 742.538513,260.746979 729.132874,247.573166 
	C714.049011,232.750183 699.216431,217.671844 684.231934,202.747360 
	C673.857910,192.414856 663.411804,182.154831 652.885010,171.556671 
	C603.783325,122.268730 554.908447,73.171371 505.668091,24.443335 
	C499.168091,18.010910 491.221313,12.701455 483.170380,8.282481 
	C476.723450,4.743918 469.100830,3.347249 462.000000,1.000000 
	C914.542786,1.000000 1367.085571,1.000000 1820.000000,1.000000 
	C1820.000000,63.025337 1820.000000,125.051422 1819.635010,187.414368 
	C1816.782104,174.469040 1804.939331,164.547455 1791.001221,164.074295 
	C1780.084351,163.703705 1769.144775,164.000000 1758.000000,164.000000 
	C1758.000000,161.758652 1758.000000,160.111282 1758.000000,158.463913 
	C1758.000000,133.799988 1758.004883,109.136055 1757.996582,84.472130 
	C1757.994629,78.489334 1757.490479,78.014435 1751.353882,78.001350 
	C1747.854248,77.993889 1744.326416,78.279755 1740.861938,77.930756 
	C1736.302856,77.471481 1734.841797,78.947670 1734.887573,83.711296 
	C1735.128174,108.706200 1735.000000,133.704651 1735.000000,158.701874 
	C1735.000000,160.445099 1735.000000,162.188324 1735.000000,163.788757 
	C1721.301025,163.788757 1708.350708,163.788757 1695.000000,163.788757 
	C1695.000000,161.961227 1695.000000,160.338303 1695.000000,158.715393 
	C1695.000000,133.551529 1694.900635,108.386887 1695.095581,83.224525 
	C1695.128906,78.930878 1693.759033,77.586555 1689.653198,77.938591 
	C1686.179077,78.236473 1682.644409,78.206535 1679.162964,77.954933 
	C1672.847900,77.498558 1671.885498,79.723900 1671.922729,84.959114 
	C1672.096680,109.455154 1672.000000,133.953125 1672.000000,158.450394 
	C1672.000000,160.217957 1672.000000,161.985535 1672.000000,164.000000 
	C1662.791138,164.000000 1654.148438,163.902603 1645.509766,164.045258 
	C1641.760986,164.107162 1638.014648,164.610641 1634.276733,165.004272 
	C1620.734619,166.430405 1609.973633,180.133926 1609.982422,193.522964 
	C1610.022461,254.516159 1610.000000,315.509399 1610.000000,376.502625 
	C1610.000000,377.502502 1609.618286,378.760956 1610.082397,379.447418 
	C1610.995972,380.799103 1612.307739,382.738647 1613.580566,382.839020 
	C1618.549194,383.230865 1623.613281,383.381470 1628.540161,382.783783 
	C1630.183228,382.584442 1631.772095,380.033905 1632.896973,378.250000 
	C1633.481445,377.323059 1632.999756,375.723938 1632.999756,374.345154 
	C1687.847046,374.345154 1742.379272,374.345154 1795.494629,374.345154 
	C1797.220215,377.761475 1798.352295,382.421631 1799.844360,382.539948 
	C1806.506714,383.068207 1813.271973,382.299957 1820.000000,382.000000 
	C1820.000000,407.025818 1820.000000,432.051666 1819.596680,457.399292 
	C1817.947754,457.480713 1816.702881,457.034943 1815.456543,457.031189 
	C1799.653076,456.983826 1783.847900,457.116943 1768.046875,456.917511 
	C1764.107422,456.867828 1762.893188,458.009613 1762.916870,462.004242 
	C1763.076294,488.952606 1763.064453,515.902649 1762.926758,542.851318 
	C1762.907349,546.648560 1763.773193,548.147339 1767.902466,548.089478 
	C1783.703003,547.868103 1799.508545,548.028015 1815.311768,547.956360 
	C1816.875854,547.949280 1818.437378,547.333313 1820.000000,547.000000 
M1131.472900,294.978027 
	C1129.943726,291.829590 1128.414673,288.681122 1126.877319,285.515808 
	C1134.997681,284.993103 1142.697021,284.242554 1150.409790,284.057098 
	C1164.069336,283.728577 1177.060059,269.229248 1177.016724,255.334274 
	C1176.952393,234.674698 1177.228882,214.011078 1176.897583,193.356628 
	C1176.745728,183.889771 1172.804932,176.022614 1164.828979,170.182800 
	C1158.745239,165.728424 1152.132568,163.984802 1144.816772,163.996323 
	C1135.237793,164.011383 1125.658813,164.000000 1116.376831,164.000000 
	C1116.376831,152.534210 1116.376831,141.798691 1116.376831,131.000000 
	C1134.246826,131.000000 1151.740234,130.958801 1169.233276,131.019440 
	C1176.661621,131.045197 1177.569702,128.906769 1177.054810,123.535515 
	C1176.754272,120.398712 1176.698242,117.173950 1177.066772,114.051811 
	C1177.707153,108.624474 1175.478516,106.956001 1169.817627,106.977631 
	C1153.323364,107.040649 1136.828735,107.005974 1120.334229,106.989349 
	C1118.913818,106.987915 1117.493652,106.836731 1116.000000,106.750893 
	C1116.000000,98.618813 1115.925171,90.958023 1116.031860,83.299759 
	C1116.084473,79.515709 1114.463989,77.851280 1110.682007,77.972939 
	C1106.853882,78.096062 1103.004150,78.210930 1099.190308,77.947189 
	C1094.309082,77.609612 1092.780151,79.801918 1092.933838,84.431374 
	C1093.180420,91.858627 1093.000000,99.300056 1093.000000,107.000000 
	C1090.813599,107.000000 1089.174683,107.000000 1087.535889,107.000000 
	C1071.541260,107.000000 1055.546387,107.031960 1039.551880,106.984070 
	C1033.272949,106.965271 1031.334595,108.338737 1031.947510,114.679039 
	C1032.250610,117.815346 1031.996094,121.005203 1032.000977,124.170807 
	C1032.009888,130.014984 1032.934326,130.975571 1038.897095,130.990280 
	C1051.726196,131.021927 1064.555176,131.000000 1077.384277,131.000000 
	C1082.492920,131.000000 1087.601562,131.000000 1093.000000,131.000000 
	C1093.000000,136.815948 1093.000000,142.116913 1093.000000,147.417877 
	C1093.000000,152.856415 1093.000000,158.294937 1093.000000,164.000000 
	C1085.490112,164.000000 1078.517456,163.876144 1071.551514,164.041260 
	C1066.470215,164.161713 1061.362549,164.391403 1056.328247,165.046387 
	C1042.295044,166.872177 1032.241211,179.731689 1032.071655,192.986252 
	C1031.802856,213.975830 1031.783569,234.975372 1032.173584,255.961151 
	C1032.256592,260.427399 1033.756470,265.300293 1035.971069,269.211609 
	C1042.242554,280.288422 1052.615234,284.710266 1064.972778,284.979309 
	C1070.569092,285.101135 1076.170288,285.000000 1082.362427,285.000000 
	C1080.347534,289.212860 1078.737183,292.872406 1076.885376,296.405334 
	C1062.942505,323.006317 1048.921875,349.566589 1035.007935,376.182678 
	C1032.816162,380.375427 1034.363770,382.889191 1038.968140,382.976379 
	C1044.297729,383.077332 1049.644165,383.207794 1054.953979,382.868835 
	C1056.478516,382.771515 1058.559448,381.441742 1059.273071,380.089935 
	C1069.297363,361.098083 1079.128296,342.004150 1089.008667,322.936188 
	C1090.142944,320.746918 1091.291626,318.565063 1093.000000,315.295990 
	C1093.000000,317.728790 1093.000000,318.861603 1093.000000,319.994385 
	C1093.000000,339.321289 1093.101929,358.649139 1092.916016,377.974274 
	C1092.877808,381.957336 1094.061768,383.372467 1098.043579,383.066956 
	C1102.018799,382.761932 1106.046387,382.818237 1110.031738,383.047699 
	C1114.630493,383.312561 1116.098633,381.279205 1116.063232,376.848877 
	C1115.913696,358.189667 1115.994629,339.528503 1116.012573,320.868073 
	C1116.013672,319.709869 1116.196655,318.551819 1116.354248,316.695557 
	C1117.205811,317.709595 1117.602661,318.039032 1117.819458,318.461029 
	C1127.927979,338.135040 1138.131470,357.761749 1148.026855,377.542511 
	C1150.136841,381.760193 1152.539551,383.760376 1157.414185,383.101501 
	C1161.177490,382.592834 1165.064819,383.016815 1168.896729,382.996124 
	C1174.890381,382.963745 1176.448242,380.608093 1173.728394,375.375702 
	C1167.848999,364.064758 1161.828003,352.827576 1155.915894,341.533539 
	C1147.902954,326.226685 1139.937622,310.894867 1131.472900,294.978027 
M1320.592041,253.892059 
	C1317.392822,256.273315 1313.738892,258.235962 1311.085083,261.119110 
	C1304.705322,268.050171 1302.932251,276.676331 1302.962646,285.913330 
	C1303.062256,316.227875 1303.056152,346.543152 1302.938354,376.857574 
	C1302.921143,381.291016 1304.384155,383.368225 1308.973755,383.037537 
	C1311.790649,382.834595 1314.634277,383.000000 1317.465820,383.000000 
	C1325.734863,383.000000 1325.730225,382.999786 1326.085571,374.982788 
	C1326.097290,374.721619 1326.418579,374.474182 1326.564697,374.264587 
	C1366.014648,374.264587 1405.421021,374.264587 1444.812378,374.264587 
	C1445.266724,382.999969 1445.266724,382.999969 1454.096191,383.000000 
	C1456.927734,383.000000 1459.777954,382.795197 1462.586548,383.049042 
	C1466.569580,383.409088 1468.124756,382.258148 1468.100708,377.847839 
	C1467.916992,344.202667 1468.009888,310.556030 1467.965454,276.909882 
	C1467.963623,275.497498 1467.493774,274.077515 1467.179688,272.675018 
	C1464.557861,260.965393 1450.983887,250.479721 1437.661011,250.871521 
	C1419.953125,251.392258 1402.218384,251.000000 1383.910522,251.000000 
	C1387.443848,243.282806 1390.725830,236.115860 1394.006592,228.948303 
	C1395.627441,225.406998 1394.459106,223.151077 1390.650513,223.042587 
	C1384.991943,222.881393 1379.316162,222.826889 1373.668701,223.125458 
	C1372.296265,223.198013 1370.399658,224.527084 1369.779419,225.787766 
	C1366.512207,232.429230 1363.488892,239.196106 1360.562622,245.997604 
	C1359.082031,249.439148 1357.325439,251.182159 1352.996338,251.172379 
	C1342.363403,251.148361 1331.543213,249.474579 1320.592041,253.892059 
M936.475159,142.019653 
	C928.834961,156.977859 921.434937,172.066849 913.406860,186.813889 
	C911.026428,191.186508 911.586365,194.041580 915.148071,196.535522 
	C926.668884,204.602417 938.319763,212.483612 949.747314,220.317657 
	C943.750183,232.130493 937.763306,243.756363 931.949036,255.467957 
	C929.963623,259.467163 927.467590,261.925964 922.595459,261.062317 
	C920.495605,260.690125 918.272827,261.061005 916.109558,260.986267 
	C912.599854,260.865021 910.905762,262.414368 910.978333,266.007660 
	C911.069153,270.504059 911.302795,275.029907 910.916504,279.494720 
	C910.515198,284.132660 912.771240,285.093262 916.698547,285.035950 
	C924.860229,284.916901 933.024902,285.000000 941.188354,285.000000 
	C944.101990,285.000000 947.015625,285.000000 950.000000,285.000000 
	C950.000000,287.066528 950.000000,288.396942 950.000000,289.727386 
	C950.000000,319.049225 950.075378,348.371490 949.914368,377.692444 
	C949.891663,381.835327 951.005371,383.447052 955.261780,383.070709 
	C959.063904,382.734497 962.933350,382.792328 966.747498,383.052338 
	C971.562500,383.380646 973.093201,381.315796 973.070251,376.633392 
	C972.929749,347.978638 973.000000,319.322845 973.000000,290.667419 
	C973.000000,288.885468 973.000000,287.103546 973.000000,285.504211 
	C977.536011,284.963654 981.565552,284.327515 985.619873,284.030853 
	C995.842224,283.282990 1002.839294,277.533661 1007.872314,269.275055 
	C1013.684998,259.737122 1011.944641,248.939117 1011.781189,238.529099 
	C1011.762390,237.330399 1009.015625,235.316193 1007.393372,235.162659 
	C1002.604858,234.709396 997.740967,235.131821 992.916077,234.953629 
	C989.750732,234.836731 988.835205,236.240051 988.963745,239.150833 
	C989.117981,242.642639 989.053467,246.147476 988.988647,249.644897 
	C988.864258,256.356293 984.199890,260.984619 977.597778,260.996887 
	C970.268250,261.010468 962.938660,261.000000 954.984863,261.000000 
	C957.110840,257.051544 959.104126,253.436050 961.018311,249.779190 
	C969.031006,234.471832 977.030334,219.157440 985.013916,203.834915 
	C990.687195,192.946609 996.383423,182.069641 1001.956787,171.130249 
	C1004.335510,166.461380 1002.707703,164.085709 997.345581,164.002258 
	C996.346191,163.986710 995.310974,164.171860 994.352173,163.973892 
	C982.431274,161.512375 975.822815,166.764038 971.801880,177.876648 
	C969.099060,185.346558 964.456909,192.114792 960.584290,199.380981 
	C954.305603,195.034286 948.400635,191.090256 942.712219,186.855209 
	C941.844971,186.209549 941.272766,183.855484 941.759583,182.901611 
	C948.291565,170.101578 955.023804,157.403488 961.735229,144.695358 
	C963.694153,140.986099 965.825012,137.366333 967.737671,133.634155 
	C974.291748,120.845589 980.868958,108.067474 987.252014,95.193451 
	C989.386536,90.888367 988.080383,89.052391 983.393921,89.009796 
	C978.562866,88.965874 973.718750,89.211372 968.903748,88.930061 
	C965.345398,88.722160 963.540161,89.790306 961.840149,93.211777 
	C953.793396,109.406494 945.291870,125.375252 936.475159,142.019653 
M1359.094971,205.429764 
	C1360.063354,200.712418 1361.777466,196.009125 1361.866943,191.275192 
	C1362.199951,173.622116 1362.103638,155.958115 1361.954834,138.300003 
	C1361.883911,129.889786 1361.787476,121.434563 1360.887939,113.087509 
	C1359.649414,101.593658 1347.021484,89.308243 1335.676636,89.127312 
	C1310.360107,88.723564 1285.032715,89.026375 1259.710083,88.965073 
	C1256.858765,88.958176 1255.879517,90.116119 1255.965942,92.854836 
	C1256.097168,97.015640 1255.993652,101.183655 1256.001587,105.348587 
	C1256.013184,111.487206 1256.490601,111.993797 1262.463379,111.996422 
	C1283.454712,112.005638 1304.448853,112.206406 1325.435913,111.903244 
	C1334.430542,111.773315 1338.754028,116.629189 1338.887329,124.826584 
	C1339.226196,145.645798 1339.281616,166.479858 1338.862061,187.296127 
	C1338.692383,195.722321 1334.570679,201.691391 1324.335693,201.007309 
	C1323.506348,200.951874 1322.664795,201.062164 1321.838257,200.988983 
	C1319.085938,200.745255 1317.892822,201.884720 1317.965210,204.725662 
	C1318.092407,209.720367 1317.705078,214.748840 1318.177368,219.701767 
	C1318.323486,221.234818 1320.473633,223.718002 1321.848267,223.818130 
	C1337.463867,224.955551 1350.418945,222.348267 1359.094971,205.429764 
M1405.500977,112.000000 
	C1422.497681,112.000000 1439.494263,111.992874 1456.490967,112.003319 
	C1463.828979,112.007835 1467.995117,116.222221 1467.997559,123.634270 
	C1468.004639,145.296692 1467.823242,166.961411 1468.106079,188.620148 
	C1468.192749,195.267792 1465.564697,198.288681 1459.935547,200.404739 
	C1457.733398,201.232666 1455.057007,201.083344 1452.622314,200.940781 
	C1449.226074,200.741898 1447.741699,201.825592 1447.938599,205.447556 
	C1448.191406,210.099579 1448.187012,214.785797 1447.935913,219.438004 
	C1447.760376,222.689392 1449.285034,224.042419 1452.138550,223.951035 
	C1457.548340,223.777771 1463.065674,223.917786 1468.330933,222.877762 
	C1481.104370,220.354721 1491.123901,207.818893 1491.046631,194.879684 
	C1490.890503,168.719070 1491.116577,142.556152 1490.952026,116.395653 
	C1490.866455,102.784897 1478.198364,89.533844 1465.102905,89.190300 
	C1440.125000,88.535057 1415.117554,89.031311 1390.122681,88.958542 
	C1387.189331,88.950005 1385.843262,89.806023 1385.953491,92.944160 
	C1386.128906,97.937012 1386.117432,102.944336 1385.956421,107.938164 
	C1385.859375,110.946602 1386.933472,112.154297 1390.006226,112.045250 
	C1394.832520,111.873985 1399.669434,111.999916 1405.500977,112.000000 
M1544.000000,473.505035 
	C1544.000000,496.654602 1544.084473,519.804810 1543.918457,542.953125 
	C1543.890137,546.900879 1545.013916,548.179688 1549.015503,548.085388 
	C1559.668457,547.834290 1570.370483,548.544067 1580.973999,547.778076 
	C1586.553101,547.375122 1592.457153,545.565491 1597.356567,542.845581 
	C1608.748901,536.521118 1611.113159,524.850403 1611.814819,513.231384 
	C1612.389771,503.710175 1612.066406,493.995209 1610.837891,484.535400 
	C1608.662476,467.785004 1599.177368,458.743835 1583.497070,457.228516 
	C1571.616821,456.080475 1559.534668,456.901245 1547.548828,457.154816 
	C1546.343140,457.180267 1544.310425,459.245667 1544.163940,460.534973 
	C1543.715820,464.481140 1544.000366,468.510590 1544.000000,473.505035 
M916.571411,457.000000 
	C914.573425,457.000336 912.433411,456.559570 910.622864,457.142181 
	C909.204163,457.598755 907.160706,459.315216 907.152649,460.484161 
	C906.958069,488.455017 906.958008,516.427856 907.147461,544.398743 
	C907.155579,545.606140 909.293091,547.827881 910.462341,547.843811 
	C927.109375,548.071045 943.761108,548.060364 960.409119,547.870972 
	C961.615662,547.857300 963.728394,546.107300 963.832947,545.013000 
	C964.236938,540.785156 963.997009,536.495789 963.997009,531.999939 
	C952.794250,531.999939 942.161255,531.913452 931.530823,532.044067 
	C927.483643,532.093689 925.794556,530.435974 925.965088,526.418701 
	C926.127380,522.596069 926.180115,518.750427 925.953857,514.934326 
	C925.679749,510.312592 927.773865,508.818298 932.179199,508.939575 
	C939.998840,509.154877 947.833252,509.138153 955.650085,508.877319 
	C957.124084,508.828186 959.679382,507.312683 959.792603,506.264069 
	C960.263245,501.903168 959.990479,497.462006 959.990479,492.999908 
	C949.929077,492.999908 940.605652,492.934967 931.283936,493.031555 
	C927.497925,493.070740 925.817261,491.450684 925.976501,487.671967 
	C926.095642,484.846466 926.190002,481.996246 925.957825,479.184875 
	C925.555115,474.307861 927.807495,472.833130 932.428711,472.930847 
	C942.853760,473.151215 953.286621,473.000000 964.000000,473.000000 
	C964.000000,469.005524 963.771057,465.519196 964.060425,462.076385 
	C964.390442,458.148804 963.045105,456.847046 959.012634,456.913116 
	C945.196716,457.139526 931.374817,457.000000 916.571411,457.000000 
M1149.000000,510.500000 
	C1149.000000,499.836182 1149.086060,489.171295 1148.956299,478.509033 
	C1148.906738,474.441681 1150.607544,472.763367 1154.610107,472.969635 
	C1157.601440,473.123840 1160.606934,473.000000 1163.606201,473.000000 
	C1174.063354,473.000000 1173.888550,472.996735 1174.088379,462.334839 
	C1174.165283,458.229889 1173.052124,456.846588 1168.768433,456.903351 
	C1151.276245,457.135101 1133.777710,456.867035 1116.284302,457.043243 
	C1102.955322,457.177490 1105.276733,454.199799 1104.969849,469.275604 
	C1104.911987,472.120026 1106.092651,473.104492 1108.841309,473.035400 
	C1113.836792,472.909821 1118.871216,473.359924 1123.827515,472.901794 
	C1129.096802,472.414734 1130.174927,474.481720 1130.113403,479.401306 
	C1129.848022,500.558990 1130.084473,521.722534 1129.922852,542.882263 
	C1129.893433,546.737610 1130.847778,548.459106 1134.952759,548.060486 
	C1138.088989,547.756042 1141.291626,547.819885 1144.440796,548.048096 
	C1147.920532,548.300293 1149.127563,547.023499 1149.066406,543.490295 
	C1148.881836,532.829651 1149.000000,522.163818 1149.000000,510.500000 
M1310.959473,164.543549 
	C1297.580811,172.931747 1284.176270,181.279495 1270.875366,189.789276 
	C1269.872559,190.430939 1269.126953,192.210571 1269.083496,193.489105 
	C1268.891724,199.139954 1268.889282,204.803940 1269.037598,210.457413 
	C1269.145996,214.592621 1272.709351,216.406158 1276.259521,214.167084 
	C1290.029419,205.482468 1303.522095,196.325668 1317.596924,188.171310 
	C1324.427490,184.213882 1327.392090,179.594376 1326.080322,171.870148 
	C1325.585938,168.959030 1326.021606,165.893448 1325.995239,162.898590 
	C1325.949463,157.686111 1323.866333,156.421204 1319.196289,158.990601 
	C1316.516479,160.464966 1314.048218,162.323639 1310.959473,164.543549 
M1415.497559,208.001785 
	C1427.777466,200.319046 1440.077026,192.667618 1452.320312,184.926971 
	C1454.759033,183.385178 1456.338257,181.377762 1456.086914,178.022049 
	C1455.740356,173.393661 1456.202515,168.706772 1455.902832,164.071777 
	C1455.778809,162.151901 1455.010986,159.174957 1453.763184,158.697495 
	C1452.109863,158.064743 1449.392700,158.914230 1447.662354,159.983643 
	C1432.730713,169.211853 1417.870972,178.559967 1403.130859,188.090469 
	C1401.328125,189.256042 1399.374023,191.614471 1399.187378,193.581268 
	C1398.655518,199.182465 1398.877930,204.870453 1399.039795,210.517517 
	C1399.169434,215.038208 1401.252197,216.208923 1405.366821,214.098236 
	C1408.654785,212.411606 1411.775024,210.397995 1415.497559,208.001785 
M914.945068,305.345612 
	C914.633240,306.091888 914.155029,306.812439 914.034973,307.588379 
	C912.669556,316.413239 911.329956,325.242371 910.042603,334.078949 
	C908.988525,341.314484 907.936035,348.552002 907.040955,355.808105 
	C906.659790,358.897675 907.945740,360.980408 911.414429,360.994781 
	C915.743713,361.012726 920.116028,360.620911 924.390442,361.105591 
	C928.745056,361.599365 930.349182,359.414215 930.934265,355.838348 
	C931.460754,352.620453 931.551270,349.333160 932.021179,346.103699 
	C933.213196,337.911163 934.544006,329.738861 935.753174,321.548676 
	C936.560791,316.078339 937.281372,310.594604 937.989136,305.110199 
	C938.366882,302.183136 937.183716,300.848083 934.056274,300.953217 
	C928.900208,301.126526 923.717529,300.777191 918.584045,301.159119 
	C917.312866,301.253723 916.187805,303.311096 914.945068,305.345612 
M1010.145630,361.000000 
	C1015.660461,360.683197 1016.148560,359.715240 1015.275940,354.478638 
	C1013.938721,346.454315 1013.073669,338.351501 1011.998474,330.283295 
	C1010.945190,322.378601 1009.849976,314.479340 1008.831421,306.570251 
	C1008.287598,302.347900 1006.425110,300.244446 1001.752686,300.910339 
	C998.488708,301.375458 995.104858,300.999603 991.774597,301.000092 
	C984.752319,301.001099 983.727722,302.597809 985.263245,309.716248 
	C986.458496,315.256927 987.198120,320.902832 987.980225,326.524200 
	C989.393005,336.678040 990.573547,346.865601 992.110291,356.999756 
	C992.485840,359.476074 993.944397,361.356018 997.238220,361.078949 
	C1001.206482,360.745117 1005.224243,360.999969 1010.145630,361.000000 
M1291.351440,129.041199 
	C1286.076294,126.675125 1280.809937,124.289093 1275.523071,121.949654 
	C1271.737549,120.274605 1269.102661,121.813416 1269.024292,125.851883 
	C1268.924438,131.000000 1268.819092,136.161804 1269.110352,141.295349 
	C1269.197998,142.841339 1270.219604,145.086288 1271.459473,145.694778 
	C1280.537842,150.150101 1289.744751,154.351852 1298.991821,158.451080 
	C1302.106201,159.831680 1304.068115,158.710083 1304.006470,155.007874 
	C1303.970459,152.848770 1303.606445,150.600647 1304.066162,148.543671 
	C1306.406372,138.071426 1301.711792,132.224869 1291.351440,129.041199 
M1427.999023,132.498215 
	C1420.575806,129.002975 1413.234131,125.317879 1405.699829,122.081184 
	C1400.909546,120.023247 1399.062134,121.461319 1399.010132,126.564461 
	C1398.962769,131.219589 1398.654907,135.913528 1399.160767,140.513535 
	C1399.379272,142.500809 1400.911255,145.135818 1402.609375,146.033813 
	C1410.858521,150.395874 1419.335693,154.334412 1427.796509,158.284958 
	C1431.458252,159.994705 1433.855347,158.425247 1433.970825,154.332382 
	C1434.097412,149.846603 1433.697632,145.328186 1434.085571,140.872604 
	C1434.469727,136.460434 1432.665771,134.068115 1427.999023,132.498215 
z"/>
<path fill="#FF5A73" opacity="1.000000" stroke="none" 
	d="
M481.000000,549.000000 
	C331.645233,549.000000 182.290466,549.000000 32.298126,548.658875 
	C21.914154,546.359863 13.652969,541.703735 8.712197,533.030273 
	C5.354167,527.135315 3.517180,520.373962 1.000002,514.000000 
	C1.000000,457.311890 1.000000,400.623810 1.467303,343.507721 
	C68.727989,343.072479 135.521408,343.035217 202.314621,343.139191 
	C205.968506,343.144867 208.467102,342.045563 211.013763,339.490326 
	C253.813873,296.546265 296.703674,253.691574 339.584106,210.827606 
	C340.990448,209.421799 342.508545,208.127762 344.307922,206.899811 
	C346.135864,208.311661 347.717590,209.518097 349.112305,210.911697 
	C388.462372,250.230164 427.789246,289.571899 467.133728,328.895935 
	C471.723938,333.483734 476.394653,337.991058 481.016235,342.970612 
	C481.002930,411.937042 481.001465,480.468506 481.000000,549.000000 
z"/>
<path fill="#55B6E6" opacity="1.000000" stroke="none" 
	d="
M481.468658,549.000000 
	C481.001465,480.468506 481.002930,411.937042 481.353210,342.847290 
	C487.490417,336.337402 493.191284,330.297485 499.085876,324.452972 
	C510.420471,313.214661 521.963806,302.185822 533.239258,290.889099 
	C548.278198,275.821838 563.081299,260.519409 578.099121,245.430862 
	C601.440430,221.979630 624.866028,198.612213 648.302612,175.256149 
	C649.653503,173.909943 651.423096,172.983963 652.997864,171.862427 
	C663.411804,182.154831 673.857910,192.414856 684.231934,202.747360 
	C699.216431,217.671844 714.049011,232.750183 729.132874,247.573166 
	C742.538513,260.746979 751.707397,276.117279 754.817078,294.820831 
	C755.087158,296.444824 754.993408,298.136749 754.993591,299.797119 
	C755.001099,370.737701 754.822937,441.679016 755.134644,512.618225 
	C755.205383,528.701233 741.568604,545.763184 725.181152,548.668213 
	C643.979126,549.000000 562.958191,549.000000 481.468658,549.000000 
z"/>
<path fill="#FFD100" opacity="1.000000" stroke="none" 
	d="
M343.974548,206.781647 
	C342.508545,208.127762 340.990448,209.421799 339.584106,210.827606 
	C296.703674,253.691574 253.813873,296.546265 211.013763,339.490326 
	C208.467102,342.045563 205.968506,343.144867 202.314621,343.139191 
	C135.521408,343.035217 68.727989,343.072479 1.467303,343.039856 
	C1.000000,329.312439 1.000000,315.624878 1.373954,301.278687 
	C2.648211,281.779205 10.152040,265.579346 23.212831,252.459717 
	C99.810493,175.517014 176.625153,98.789963 253.544006,22.168264 
	C258.441132,17.290058 264.428528,13.092845 270.628387,10.040677 
	C278.361633,6.233621 286.842133,3.944519 295.000000,1.000001 
	C311.020905,1.000000 327.041779,1.000000 343.531342,1.468657 
	C343.991516,70.218758 343.983032,138.500198 343.974548,206.781647 
z"/>
<path fill="#2BD200" opacity="1.000000" stroke="none" 
	d="
M344.307922,206.899811 
	C343.983032,138.500198 343.991516,70.218758 344.000000,1.468657 
	C383.020905,1.000000 422.041779,1.000000 461.531342,1.000000 
	C469.100830,3.347249 476.723450,4.743918 483.170380,8.282481 
	C491.221313,12.701455 499.168091,18.010910 505.668091,24.443335 
	C554.908447,73.171371 603.783325,122.268730 652.885010,171.556671 
	C651.423096,172.983963 649.653503,173.909943 648.302612,175.256149 
	C624.866028,198.612213 601.440430,221.979630 578.099121,245.430862 
	C563.081299,260.519409 548.278198,275.821838 533.239258,290.889099 
	C521.963806,302.185822 510.420471,313.214661 499.085876,324.452972 
	C493.191284,330.297485 487.490417,336.337402 481.365051,342.412354 
	C476.394653,337.991058 471.723938,333.483734 467.133728,328.895935 
	C427.789246,289.571899 388.462372,250.230164 349.112305,210.911697 
	C347.717590,209.518097 346.135864,208.311661 344.307922,206.899811 
z"/>
<path fill="#FFFFFF" opacity="1.000000" stroke="none" 
	d="
M294.531342,1.000001 
	C286.842133,3.944519 278.361633,6.233621 270.628387,10.040677 
	C264.428528,13.092845 258.441132,17.290058 253.544006,22.168264 
	C176.625153,98.789963 99.810493,175.517014 23.212831,252.459717 
	C10.152040,265.579346 2.648211,281.779205 1.373954,300.810059 
	C1.000000,201.073669 1.000000,101.147339 1.000000,1.000000 
	C98.687447,1.000000 196.375061,1.000000 294.531342,1.000001 
z"/>
<path fill="#232323" opacity="1.000000" stroke="none" 
	d="
M1820.000000,381.531372 
	C1813.271973,382.299957 1806.506714,383.068207 1799.844360,382.539948 
	C1798.352295,382.421631 1797.220215,377.761475 1795.494629,374.345154 
	C1742.379272,374.345154 1687.847046,374.345154 1632.999756,374.345154 
	C1632.999756,375.723938 1633.481445,377.323059 1632.896973,378.250000 
	C1631.772095,380.033905 1630.183228,382.584442 1628.540161,382.783783 
	C1623.613281,383.381470 1618.549194,383.230865 1613.580566,382.839020 
	C1612.307739,382.738647 1610.995972,380.799103 1610.082397,379.447418 
	C1609.618286,378.760956 1610.000000,377.502502 1610.000000,376.502625 
	C1610.000000,315.509399 1610.022461,254.516159 1609.982422,193.522964 
	C1609.973633,180.133926 1620.734619,166.430405 1634.276733,165.004272 
	C1638.014648,164.610641 1641.760986,164.107162 1645.509766,164.045258 
	C1654.148438,163.902603 1662.791138,164.000000 1672.000000,164.000000 
	C1672.000000,161.985535 1672.000000,160.217957 1672.000000,158.450394 
	C1672.000000,133.953125 1672.096680,109.455154 1671.922729,84.959114 
	C1671.885498,79.723900 1672.847900,77.498558 1679.162964,77.954933 
	C1682.644409,78.206535 1686.179077,78.236473 1689.653198,77.938591 
	C1693.759033,77.586555 1695.128906,78.930878 1695.095581,83.224525 
	C1694.900635,108.386887 1695.000000,133.551529 1695.000000,158.715393 
	C1695.000000,160.338303 1695.000000,161.961227 1695.000000,163.788757 
	C1708.350708,163.788757 1721.301025,163.788757 1735.000000,163.788757 
	C1735.000000,162.188324 1735.000000,160.445099 1735.000000,158.701874 
	C1735.000000,133.704651 1735.128174,108.706200 1734.887573,83.711296 
	C1734.841797,78.947670 1736.302856,77.471481 1740.861938,77.930756 
	C1744.326416,78.279755 1747.854248,77.993889 1751.353882,78.001350 
	C1757.490479,78.014435 1757.994629,78.489334 1757.996582,84.472130 
	C1758.004883,109.136055 1758.000000,133.799988 1758.000000,158.463913 
	C1758.000000,160.111282 1758.000000,161.758652 1758.000000,164.000000 
	C1769.144775,164.000000 1780.084351,163.703705 1791.001221,164.074295 
	C1804.939331,164.547455 1816.782104,174.469040 1819.635010,187.875610 
	C1820.000000,252.354233 1820.000000,316.708466 1820.000000,381.531372 
M1734.999634,255.309601 
	C1734.999634,232.576309 1734.999634,209.843018 1734.999634,187.361359 
	C1721.223511,187.361359 1708.158081,187.361359 1695.361084,187.361359 
	C1695.361084,211.116455 1695.361084,234.509262 1695.361084,257.999786 
	C1707.709961,257.999786 1719.698486,258.045013 1731.685303,257.924713 
	C1732.793457,257.913605 1733.891113,256.849335 1734.999634,255.309601 
M1735.000000,341.465271 
	C1735.000000,321.384491 1735.000000,301.303741 1735.000000,281.303711 
	C1721.338013,281.303711 1708.275513,281.303711 1695.300537,281.303711 
	C1695.300537,304.665070 1695.300537,327.721558 1695.300537,350.694427 
	C1708.665649,350.694427 1721.728027,350.694427 1735.000000,350.694427 
	C1735.000000,347.745148 1735.000000,345.099731 1735.000000,341.465271 
M1758.000000,215.500000 
	C1758.000000,229.594620 1758.000000,243.689224 1758.000000,257.685303 
	C1771.339111,257.685303 1784.074341,257.685303 1797.000000,257.685303 
	C1797.000000,237.557480 1797.122192,217.742432 1796.912598,197.930893 
	C1796.861328,193.092331 1794.599121,188.590759 1789.232300,188.117188 
	C1778.947876,187.209671 1768.597656,187.046631 1758.000000,186.562134 
	C1758.000000,196.549957 1758.000000,205.524979 1758.000000,215.500000 
M1633.000000,203.588974 
	C1633.000000,221.645706 1633.000000,239.702438 1633.000000,257.726166 
	C1646.296143,257.726166 1659.010742,257.726166 1671.768311,257.726166 
	C1671.768311,234.088287 1671.768311,210.724960 1671.768311,187.539993 
	C1671.409546,187.265839 1671.282837,187.084488 1671.155518,187.083832 
	C1663.673706,187.046402 1656.181519,187.262863 1648.712402,186.942596 
	C1638.163696,186.490311 1631.851318,190.880035 1633.000000,203.588974 
M1633.000000,323.500000 
	C1633.000000,332.591919 1633.000000,341.683807 1633.000000,350.700745 
	C1646.320435,350.700745 1659.049072,350.700745 1671.705322,350.700745 
	C1671.705322,327.344879 1671.705322,304.289429 1671.705322,281.299072 
	C1658.679932,281.299072 1645.951294,281.299072 1633.000000,281.299072 
	C1633.000000,295.231323 1633.000000,308.865662 1633.000000,323.500000 
M1785.482422,351.000000 
	C1789.250122,351.000000 1793.017944,351.000000 1796.710449,351.000000 
	C1796.710449,327.356262 1796.710449,304.300385 1796.710449,281.294342 
	C1783.690063,281.294342 1770.961304,281.294342 1758.290527,281.294342 
	C1758.290527,304.645721 1758.290527,327.701599 1758.290527,351.000000 
	C1767.215576,351.000000 1775.852173,351.000000 1785.482422,351.000000 
z"/>
<path fill="#232323" opacity="1.000000" stroke="none" 
	d="
M1346.468018,549.000000 
	C1340.940552,546.442261 1335.283447,544.631836 1330.950562,541.165833 
	C1322.793457,534.640930 1320.362915,524.906128 1320.121338,515.012268 
	C1319.690063,497.357544 1320.111206,479.683441 1319.915283,462.020325 
	C1319.871094,458.025848 1321.079346,456.575623 1325.051636,456.941742 
	C1328.191406,457.231140 1331.394165,457.193726 1334.541626,456.949158 
	C1338.152344,456.668610 1339.091553,458.212463 1339.059937,461.611725 
	C1338.921265,476.609283 1338.828369,491.611847 1339.092041,506.606049 
	C1339.185791,511.935852 1339.886719,517.353271 1341.110718,522.541992 
	C1342.963989,530.399780 1349.076782,533.115112 1356.532349,532.940247 
	C1363.170776,532.784546 1368.705811,527.805603 1369.927612,520.902649 
	C1370.664795,516.737793 1370.922363,512.444885 1370.954468,508.206146 
	C1371.070557,492.874908 1371.155029,477.539642 1370.900879,462.211731 
	C1370.829224,457.888702 1372.278198,456.645386 1376.360352,456.932251 
	C1380.661865,457.234528 1385.001099,457.000000 1389.680420,457.000000 
	C1389.793213,458.376740 1389.985352,459.637390 1389.986694,460.898224 
	C1390.005859,479.896759 1390.267456,498.900208 1389.917358,517.892273 
	C1389.624756,533.760315 1379.284180,545.902710 1364.130005,548.630371 
	C1358.312012,549.000000 1352.623901,549.000000 1346.468018,549.000000 
z"/>
<path fill="#232323" opacity="1.000000" stroke="none" 
	d="
M1820.000000,546.535339 
	C1818.437378,547.333313 1816.875854,547.949280 1815.311768,547.956360 
	C1799.508545,548.028015 1783.703003,547.868103 1767.902466,548.089478 
	C1763.773193,548.147339 1762.907349,546.648560 1762.926758,542.851318 
	C1763.064453,515.902649 1763.076294,488.952606 1762.916870,462.004242 
	C1762.893188,458.009613 1764.107422,456.867828 1768.046875,456.917511 
	C1783.847900,457.116943 1799.653076,456.983826 1815.456543,457.031189 
	C1816.702881,457.034943 1817.947754,457.480713 1819.596680,457.860535 
	C1820.000000,462.356903 1820.000000,466.713806 1819.596680,471.674805 
	C1811.457520,472.519257 1803.723022,472.901581 1795.985718,472.970337 
	C1780.055054,473.112000 1782.212158,471.274628 1781.940186,487.091095 
	C1781.860474,491.723755 1783.813110,493.235748 1788.197388,493.054474 
	C1793.679565,492.827850 1799.179688,492.912018 1804.669067,493.017487 
	C1818.018921,493.274078 1815.691650,490.524109 1816.046875,504.699799 
	C1816.128052,507.941223 1815.027954,509.120392 1811.743652,509.055786 
	C1803.260254,508.888916 1794.769287,509.108978 1786.285767,508.944885 
	C1783.031738,508.881958 1781.802246,509.997864 1781.949585,513.272278 
	C1782.151367,517.756226 1782.088013,522.258179 1781.972900,526.748230 
	C1781.875366,530.554749 1783.588257,532.086548 1787.354858,532.036438 
	C1796.006348,531.921204 1804.661377,531.933228 1813.312988,532.045715 
	C1815.545776,532.074707 1817.771240,532.666687 1820.000000,533.000000 
	C1820.000000,537.356873 1820.000000,541.713806 1820.000000,546.535339 
z"/>
<path fill="#FFFFFF" opacity="1.000000" stroke="none" 
	d="
M1820.000000,532.531372 
	C1817.771240,532.666687 1815.545776,532.074707 1813.312988,532.045715 
	C1804.661377,531.933228 1796.006348,531.921204 1787.354858,532.036438 
	C1783.588257,532.086548 1781.875366,530.554749 1781.972900,526.748230 
	C1782.088013,522.258179 1782.151367,517.756226 1781.949585,513.272278 
	C1781.802246,509.997864 1783.031738,508.881958 1786.285767,508.944885 
	C1794.769287,509.108978 1803.260254,508.888916 1811.743652,509.055786 
	C1815.027954,509.120392 1816.128052,507.941223 1816.046875,504.699799 
	C1815.691650,490.524109 1818.018921,493.274078 1804.669067,493.017487 
	C1799.179688,492.912018 1793.679565,492.827850 1788.197388,493.054474 
	C1783.813110,493.235748 1781.860474,491.723755 1781.940186,487.091095 
	C1782.212158,471.274628 1780.055054,473.112000 1795.985718,472.970337 
	C1803.723022,472.901581 1811.457520,472.519257 1819.596680,472.139465 
	C1820.000000,492.020905 1820.000000,512.041809 1820.000000,532.531372 
z"/>
<path fill="#FFFFFF" opacity="1.000000" stroke="none" 
	d="
M1.000002,514.468628 
	C3.517180,520.373962 5.354167,527.135315 8.712197,533.030273 
	C13.652969,541.703735 21.914154,546.359863 31.830271,548.658875 
	C21.735659,549.000000 11.471316,549.000000 1.000000,549.000000 
	C1.000000,537.646606 1.000000,526.291992 1.000002,514.468628 
z"/>
<path fill="#232323" opacity="1.000000" stroke="none" 
	d="
M1131.712402,295.275879 
	C1139.937622,310.894867 1147.902954,326.226685 1155.915894,341.533539 
	C1161.828003,352.827576 1167.848999,364.064758 1173.728394,375.375702 
	C1176.448242,380.608093 1174.890381,382.963745 1168.896729,382.996124 
	C1165.064819,383.016815 1161.177490,382.592834 1157.414185,383.101501 
	C1152.539551,383.760376 1150.136841,381.760193 1148.026855,377.542511 
	C1138.131470,357.761749 1127.927979,338.135040 1117.819458,318.461029 
	C1117.602661,318.039032 1117.205811,317.709595 1116.354248,316.695557 
	C1116.196655,318.551819 1116.013672,319.709869 1116.012573,320.868073 
	C1115.994629,339.528503 1115.913696,358.189667 1116.063232,376.848877 
	C1116.098633,381.279205 1114.630493,383.312561 1110.031738,383.047699 
	C1106.046387,382.818237 1102.018799,382.761932 1098.043579,383.066956 
	C1094.061768,383.372467 1092.877808,381.957336 1092.916016,377.974274 
	C1093.101929,358.649139 1093.000000,339.321289 1093.000000,319.994385 
	C1093.000000,318.861603 1093.000000,317.728790 1093.000000,315.295990 
	C1091.291626,318.565063 1090.142944,320.746918 1089.008667,322.936188 
	C1079.128296,342.004150 1069.297363,361.098083 1059.273071,380.089935 
	C1058.559448,381.441742 1056.478516,382.771515 1054.953979,382.868835 
	C1049.644165,383.207794 1044.297729,383.077332 1038.968140,382.976379 
	C1034.363770,382.889191 1032.816162,380.375427 1035.007935,376.182678 
	C1048.921875,349.566589 1062.942505,323.006317 1076.885376,296.405334 
	C1078.737183,292.872406 1080.347534,289.212860 1082.362427,285.000000 
	C1076.170288,285.000000 1070.569092,285.101135 1064.972778,284.979309 
	C1052.615234,284.710266 1042.242554,280.288422 1035.971069,269.211609 
	C1033.756470,265.300293 1032.256592,260.427399 1032.173584,255.961151 
	C1031.783569,234.975372 1031.802856,213.975830 1032.071655,192.986252 
	C1032.241211,179.731689 1042.295044,166.872177 1056.328247,165.046387 
	C1061.362549,164.391403 1066.470215,164.161713 1071.551514,164.041260 
	C1078.517456,163.876144 1085.490112,164.000000 1093.000000,164.000000 
	C1093.000000,158.294937 1093.000000,152.856415 1093.000000,147.417877 
	C1093.000000,142.116913 1093.000000,136.815948 1093.000000,131.000000 
	C1087.601562,131.000000 1082.492920,131.000000 1077.384277,131.000000 
	C1064.555176,131.000000 1051.726196,131.021927 1038.897095,130.990280 
	C1032.934326,130.975571 1032.009888,130.014984 1032.000977,124.170807 
	C1031.996094,121.005203 1032.250610,117.815346 1031.947510,114.679039 
	C1031.334595,108.338737 1033.272949,106.965271 1039.551880,106.984070 
	C1055.546387,107.031960 1071.541260,107.000000 1087.535889,107.000000 
	C1089.174683,107.000000 1090.813599,107.000000 1093.000000,107.000000 
	C1093.000000,99.300056 1093.180420,91.858627 1092.933838,84.431374 
	C1092.780151,79.801918 1094.309082,77.609612 1099.190308,77.947189 
	C1103.004150,78.210930 1106.853882,78.096062 1110.682007,77.972939 
	C1114.463989,77.851280 1116.084473,79.515709 1116.031860,83.299759 
	C1115.925171,90.958023 1116.000000,98.618813 1116.000000,106.750893 
	C1117.493652,106.836731 1118.913818,106.987915 1120.334229,106.989349 
	C1136.828735,107.005974 1153.323364,107.040649 1169.817627,106.977631 
	C1175.478516,106.956001 1177.707153,108.624474 1177.066772,114.051811 
	C1176.698242,117.173950 1176.754272,120.398712 1177.054810,123.535515 
	C1177.569702,128.906769 1176.661621,131.045197 1169.233276,131.019440 
	C1151.740234,130.958801 1134.246826,131.000000 1116.376831,131.000000 
	C1116.376831,141.798691 1116.376831,152.534210 1116.376831,164.000000 
	C1125.658813,164.000000 1135.237793,164.011383 1144.816772,163.996323 
	C1152.132568,163.984802 1158.745239,165.728424 1164.828979,170.182800 
	C1172.804932,176.022614 1176.745728,183.889771 1176.897583,193.356628 
	C1177.228882,214.011078 1176.952393,234.674698 1177.016724,255.334274 
	C1177.060059,269.229248 1164.069336,283.728577 1150.409790,284.057098 
	C1142.697021,284.242554 1134.997681,284.993103 1126.877319,285.515808 
	C1128.414673,288.681122 1129.943726,291.829590 1131.712402,295.275879 
M1127.451416,236.000000 
	C1123.690186,236.000000 1119.928955,236.000000 1116.334351,236.000000 
	C1116.334351,244.713394 1116.334351,252.784180 1116.334351,261.000000 
	C1125.155640,261.000000 1133.643311,261.004089 1142.130859,260.998810 
	C1149.612671,260.994171 1153.967285,256.729797 1153.986572,249.209457 
	C1154.029663,232.377853 1154.017944,215.546021 1153.989380,198.714355 
	C1153.980469,193.423691 1151.326416,188.803848 1146.002686,188.169083 
	C1136.119629,186.990738 1126.088379,187.057434 1116.203857,186.609589 
	C1116.203857,196.017624 1116.203857,204.302139 1116.203857,213.000000 
	C1119.849854,213.000000 1123.306763,213.000000 1126.763550,213.000000 
	C1139.000000,213.000000 1138.919556,213.000671 1139.024292,225.461151 
	C1139.116089,236.388000 1139.369507,236.207031 1127.451416,236.000000 
M1070.286011,233.794220 
	C1070.190674,228.646973 1070.294556,223.485825 1069.936523,218.356903 
	C1069.652222,214.283813 1070.867798,212.645416 1075.207397,212.910477 
	C1081.096436,213.270157 1087.023926,213.000015 1092.629639,213.000015 
	C1092.629639,203.865829 1092.629639,195.466263 1092.629639,187.000061 
	C1083.938232,187.000061 1075.616333,186.924240 1067.296387,187.023193 
	C1060.181274,187.107819 1055.109009,191.315079 1055.054321,197.576447 
	C1054.900513,215.219543 1054.938477,232.865219 1055.043335,250.509033 
	C1055.070557,255.076248 1059.258911,260.735626 1063.157227,260.867371 
	C1073.053223,261.201691 1082.968262,260.978424 1092.651978,260.978424 
	C1092.651978,252.245163 1092.651978,244.180130 1092.651978,236.000000 
	C1086.819214,236.000000 1081.329590,236.120071 1075.851196,235.927078 
	C1074.200562,235.868942 1072.580444,234.940765 1070.286011,233.794220 
z"/>
<path fill="#232323" opacity="1.000000" stroke="none" 
	d="
M1320.873047,253.610107 
	C1331.543213,249.474579 1342.363403,251.148361 1352.996338,251.172379 
	C1357.325439,251.182159 1359.082031,249.439148 1360.562622,245.997604 
	C1363.488892,239.196106 1366.512207,232.429230 1369.779419,225.787766 
	C1370.399658,224.527084 1372.296265,223.198013 1373.668701,223.125458 
	C1379.316162,222.826889 1384.991943,222.881393 1390.650513,223.042587 
	C1394.459106,223.151077 1395.627441,225.406998 1394.006592,228.948303 
	C1390.725830,236.115860 1387.443848,243.282806 1383.910522,251.000000 
	C1402.218384,251.000000 1419.953125,251.392258 1437.661011,250.871521 
	C1450.983887,250.479721 1464.557861,260.965393 1467.179688,272.675018 
	C1467.493774,274.077515 1467.963623,275.497498 1467.965454,276.909882 
	C1468.009888,310.556030 1467.916992,344.202667 1468.100708,377.847839 
	C1468.124756,382.258148 1466.569580,383.409088 1462.586548,383.049042 
	C1459.777954,382.795197 1456.927734,383.000000 1454.096191,383.000000 
	C1445.266724,382.999969 1445.266724,382.999969 1444.812378,374.264587 
	C1405.421021,374.264587 1366.014648,374.264587 1326.564697,374.264587 
	C1326.418579,374.474182 1326.097290,374.721619 1326.085571,374.982788 
	C1325.730225,382.999786 1325.734863,383.000000 1317.465820,383.000000 
	C1314.634277,383.000000 1311.790649,382.834595 1308.973755,383.037537 
	C1304.384155,383.368225 1302.921143,381.291016 1302.938354,376.857574 
	C1303.056152,346.543152 1303.062256,316.227875 1302.962646,285.913330 
	C1302.932251,276.676331 1304.705322,268.050171 1311.085083,261.119110 
	C1313.738892,258.235962 1317.392822,256.273315 1320.873047,253.610107 
M1326.000000,343.437378 
	C1326.000000,345.872620 1326.000000,348.307861 1326.000000,350.728119 
	C1365.945557,350.728119 1405.332031,350.728119 1444.717773,350.728119 
	C1444.717773,341.387787 1444.717773,332.322357 1444.717773,323.274841 
	C1405.048462,323.274841 1365.661987,323.274841 1326.000000,323.274841 
	C1326.000000,329.848877 1326.000000,336.151794 1326.000000,343.437378 
M1374.500000,300.000000 
	C1397.918457,300.000000 1421.336914,300.000000 1445.000000,300.000000 
	C1445.000000,294.618652 1445.021851,289.811707 1444.994629,285.005005 
	C1444.957275,278.400085 1440.537720,274.009308 1433.868286,274.006378 
	C1401.886719,273.992218 1369.905151,273.991364 1337.923584,274.007996 
	C1332.211182,274.010986 1327.983276,277.130035 1327.077759,282.798767 
	C1326.187012,288.375519 1326.074829,294.076630 1325.598877,300.000000 
	C1342.228271,300.000000 1357.864136,300.000000 1374.500000,300.000000 
z"/>
<path fill="#232323" opacity="1.000000" stroke="none" 
	d="
M936.713745,141.722107 
	C945.291870,125.375252 953.793396,109.406494 961.840149,93.211777 
	C963.540161,89.790306 965.345398,88.722160 968.903748,88.930061 
	C973.718750,89.211372 978.562866,88.965874 983.393921,89.009796 
	C988.080383,89.052391 989.386536,90.888367 987.252014,95.193451 
	C980.868958,108.067474 974.291748,120.845589 967.737671,133.634155 
	C965.825012,137.366333 963.694153,140.986099 961.735229,144.695358 
	C955.023804,157.403488 948.291565,170.101578 941.759583,182.901611 
	C941.272766,183.855484 941.844971,186.209549 942.712219,186.855209 
	C948.400635,191.090256 954.305603,195.034286 960.584290,199.380981 
	C964.456909,192.114792 969.099060,185.346558 971.801880,177.876648 
	C975.822815,166.764038 982.431274,161.512375 994.352173,163.973892 
	C995.310974,164.171860 996.346191,163.986710 997.345581,164.002258 
	C1002.707703,164.085709 1004.335510,166.461380 1001.956787,171.130249 
	C996.383423,182.069641 990.687195,192.946609 985.013916,203.834915 
	C977.030334,219.157440 969.031006,234.471832 961.018311,249.779190 
	C959.104126,253.436050 957.110840,257.051544 954.984863,261.000000 
	C962.938660,261.000000 970.268250,261.010468 977.597778,260.996887 
	C984.199890,260.984619 988.864258,256.356293 988.988647,249.644897 
	C989.053467,246.147476 989.117981,242.642639 988.963745,239.150833 
	C988.835205,236.240051 989.750732,234.836731 992.916077,234.953629 
	C997.740967,235.131821 1002.604858,234.709396 1007.393372,235.162659 
	C1009.015625,235.316193 1011.762390,237.330399 1011.781189,238.529099 
	C1011.944641,248.939117 1013.684998,259.737122 1007.872314,269.275055 
	C1002.839294,277.533661 995.842224,283.282990 985.619873,284.030853 
	C981.565552,284.327515 977.536011,284.963654 973.000000,285.504211 
	C973.000000,287.103546 973.000000,288.885468 973.000000,290.667419 
	C973.000000,319.322845 972.929749,347.978638 973.070251,376.633392 
	C973.093201,381.315796 971.562500,383.380646 966.747498,383.052338 
	C962.933350,382.792328 959.063904,382.734497 955.261780,383.070709 
	C951.005371,383.447052 949.891663,381.835327 949.914368,377.692444 
	C950.075378,348.371490 950.000000,319.049225 950.000000,289.727386 
	C950.000000,288.396942 950.000000,287.066528 950.000000,285.000000 
	C947.015625,285.000000 944.101990,285.000000 941.188354,285.000000 
	C933.024902,285.000000 924.860229,284.916901 916.698547,285.035950 
	C912.771240,285.093262 910.515198,284.132660 910.916504,279.494720 
	C911.302795,275.029907 911.069153,270.504059 910.978333,266.007660 
	C910.905762,262.414368 912.599854,260.865021 916.109558,260.986267 
	C918.272827,261.061005 920.495605,260.690125 922.595459,261.062317 
	C927.467590,261.925964 929.963623,259.467163 931.949036,255.467957 
	C937.763306,243.756363 943.750183,232.130493 949.747314,220.317657 
	C938.319763,212.483612 926.668884,204.602417 915.148071,196.535522 
	C911.586365,194.041580 911.026428,191.186508 913.406860,186.813889 
	C921.434937,172.066849 928.834961,156.977859 936.713745,141.722107 
z"/>
<path fill="#232323" opacity="1.000000" stroke="none" 
	d="
M1359.034912,205.822906 
	C1350.418945,222.348267 1337.463867,224.955551 1321.848267,223.818130 
	C1320.473633,223.718002 1318.323486,221.234818 1318.177368,219.701767 
	C1317.705078,214.748840 1318.092407,209.720367 1317.965210,204.725662 
	C1317.892822,201.884720 1319.085938,200.745255 1321.838257,200.988983 
	C1322.664795,201.062164 1323.506348,200.951874 1324.335693,201.007309 
	C1334.570679,201.691391 1338.692383,195.722321 1338.862061,187.296127 
	C1339.281616,166.479858 1339.226196,145.645798 1338.887329,124.826584 
	C1338.754028,116.629189 1334.430542,111.773315 1325.435913,111.903244 
	C1304.448853,112.206406 1283.454712,112.005638 1262.463379,111.996422 
	C1256.490601,111.993797 1256.013184,111.487206 1256.001587,105.348587 
	C1255.993652,101.183655 1256.097168,97.015640 1255.965942,92.854836 
	C1255.879517,90.116119 1256.858765,88.958176 1259.710083,88.965073 
	C1285.032715,89.026375 1310.360107,88.723564 1335.676636,89.127312 
	C1347.021484,89.308243 1359.649414,101.593658 1360.887939,113.087509 
	C1361.787476,121.434563 1361.883911,129.889786 1361.954834,138.300003 
	C1362.103638,155.958115 1362.199951,173.622116 1361.866943,191.275192 
	C1361.777466,196.009125 1360.063354,200.712418 1359.034912,205.822906 
z"/>
<path fill="#232323" opacity="1.000000" stroke="none" 
	d="
M1405.001465,112.000000 
	C1399.669434,111.999916 1394.832520,111.873985 1390.006226,112.045250 
	C1386.933472,112.154297 1385.859375,110.946602 1385.956421,107.938164 
	C1386.117432,102.944336 1386.128906,97.937012 1385.953491,92.944160 
	C1385.843262,89.806023 1387.189331,88.950005 1390.122681,88.958542 
	C1415.117554,89.031311 1440.125000,88.535057 1465.102905,89.190300 
	C1478.198364,89.533844 1490.866455,102.784897 1490.952026,116.395653 
	C1491.116577,142.556152 1490.890503,168.719070 1491.046631,194.879684 
	C1491.123901,207.818893 1481.104370,220.354721 1468.330933,222.877762 
	C1463.065674,223.917786 1457.548340,223.777771 1452.138550,223.951035 
	C1449.285034,224.042419 1447.760376,222.689392 1447.935913,219.438004 
	C1448.187012,214.785797 1448.191406,210.099579 1447.938599,205.447556 
	C1447.741699,201.825592 1449.226074,200.741898 1452.622314,200.940781 
	C1455.057007,201.083344 1457.733398,201.232666 1459.935547,200.404739 
	C1465.564697,198.288681 1468.192749,195.267792 1468.106079,188.620148 
	C1467.823242,166.961411 1468.004639,145.296692 1467.997559,123.634270 
	C1467.995117,116.222221 1463.828979,112.007835 1456.490967,112.003319 
	C1439.494263,111.992874 1422.497681,112.000000 1405.001465,112.000000 
z"/>
<path fill="#232323" opacity="1.000000" stroke="none" 
	d="
M1544.000000,473.006348 
	C1544.000366,468.510590 1543.715820,464.481140 1544.163940,460.534973 
	C1544.310425,459.245667 1546.343140,457.180267 1547.548828,457.154816 
	C1559.534668,456.901245 1571.616821,456.080475 1583.497070,457.228516 
	C1599.177368,458.743835 1608.662476,467.785004 1610.837891,484.535400 
	C1612.066406,493.995209 1612.389771,503.710175 1611.814819,513.231384 
	C1611.113159,524.850403 1608.748901,536.521118 1597.356567,542.845581 
	C1592.457153,545.565491 1586.553101,547.375122 1580.973999,547.778076 
	C1570.370483,548.544067 1559.668457,547.834290 1549.015503,548.085388 
	C1545.013916,548.179688 1543.890137,546.900879 1543.918457,542.953125 
	C1544.084473,519.804810 1544.000000,496.654602 1544.000000,473.006348 
M1577.070923,473.002106 
	C1573.907227,473.001678 1570.616211,472.474945 1567.627808,473.198608 
	C1565.840332,473.631439 1563.229492,475.997009 1563.200073,477.536316 
	C1562.880737,494.181030 1562.880737,510.836487 1563.201050,527.481140 
	C1563.230469,529.014832 1565.985107,531.663818 1567.612915,531.775574 
	C1572.134033,532.085754 1576.970459,532.094543 1581.215454,530.749084 
	C1584.489502,529.711365 1588.486084,527.020508 1589.676758,524.064026 
	C1593.586182,514.356995 1593.407959,503.910187 1592.776855,493.573395 
	C1592.628662,491.148712 1592.135620,488.739594 1591.717407,486.337921 
	C1590.366089,478.576965 1585.448364,474.469299 1577.070923,473.002106 
z"/>
<path fill="#232323" opacity="1.000000" stroke="none" 
	d="
M917.063354,457.000000 
	C931.374817,457.000000 945.196716,457.139526 959.012634,456.913116 
	C963.045105,456.847046 964.390442,458.148804 964.060425,462.076385 
	C963.771057,465.519196 964.000000,469.005524 964.000000,473.000000 
	C953.286621,473.000000 942.853760,473.151215 932.428711,472.930847 
	C927.807495,472.833130 925.555115,474.307861 925.957825,479.184875 
	C926.190002,481.996246 926.095642,484.846466 925.976501,487.671967 
	C925.817261,491.450684 927.497925,493.070740 931.283936,493.031555 
	C940.605652,492.934967 949.929077,492.999908 959.990479,492.999908 
	C959.990479,497.462006 960.263245,501.903168 959.792603,506.264069 
	C959.679382,507.312683 957.124084,508.828186 955.650085,508.877319 
	C947.833252,509.138153 939.998840,509.154877 932.179199,508.939575 
	C927.773865,508.818298 925.679749,510.312592 925.953857,514.934326 
	C926.180115,518.750427 926.127380,522.596069 925.965088,526.418701 
	C925.794556,530.435974 927.483643,532.093689 931.530823,532.044067 
	C942.161255,531.913452 952.794250,531.999939 963.997009,531.999939 
	C963.997009,536.495789 964.236938,540.785156 963.832947,545.013000 
	C963.728394,546.107300 961.615662,547.857300 960.409119,547.870972 
	C943.761108,548.060364 927.109375,548.071045 910.462341,547.843811 
	C909.293091,547.827881 907.155579,545.606140 907.147461,544.398743 
	C906.958008,516.427856 906.958069,488.455017 907.152649,460.484161 
	C907.160706,459.315216 909.204163,457.598755 910.622864,457.142181 
	C912.433411,456.559570 914.573425,457.000336 917.063354,457.000000 
z"/>
<path fill="#232323" opacity="1.000000" stroke="none" 
	d="
M1149.000000,511.000000 
	C1149.000000,522.163818 1148.881836,532.829651 1149.066406,543.490295 
	C1149.127563,547.023499 1147.920532,548.300293 1144.440796,548.048096 
	C1141.291626,547.819885 1138.088989,547.756042 1134.952759,548.060486 
	C1130.847778,548.459106 1129.893433,546.737610 1129.922852,542.882263 
	C1130.084473,521.722534 1129.848022,500.558990 1130.113403,479.401306 
	C1130.174927,474.481720 1129.096802,472.414734 1123.827515,472.901794 
	C1118.871216,473.359924 1113.836792,472.909821 1108.841309,473.035400 
	C1106.092651,473.104492 1104.911987,472.120026 1104.969849,469.275604 
	C1105.276733,454.199799 1102.955322,457.177490 1116.284302,457.043243 
	C1133.777710,456.867035 1151.276245,457.135101 1168.768433,456.903351 
	C1173.052124,456.846588 1174.165283,458.229889 1174.088379,462.334839 
	C1173.888550,472.996735 1174.063354,473.000000 1163.606201,473.000000 
	C1160.606934,473.000000 1157.601440,473.123840 1154.610107,472.969635 
	C1150.607544,472.763367 1148.906738,474.441681 1148.956299,478.509033 
	C1149.086060,489.171295 1149.000000,499.836182 1149.000000,511.000000 
z"/>
<path fill="#232323" opacity="1.000000" stroke="none" 
	d="
M1311.222168,164.276428 
	C1314.048218,162.323639 1316.516479,160.464966 1319.196289,158.990601 
	C1323.866333,156.421204 1325.949463,157.686111 1325.995239,162.898590 
	C1326.021606,165.893448 1325.585938,168.959030 1326.080322,171.870148 
	C1327.392090,179.594376 1324.427490,184.213882 1317.596924,188.171310 
	C1303.522095,196.325668 1290.029419,205.482468 1276.259521,214.167084 
	C1272.709351,216.406158 1269.145996,214.592621 1269.037598,210.457413 
	C1268.889282,204.803940 1268.891724,199.139954 1269.083496,193.489105 
	C1269.126953,192.210571 1269.872559,190.430939 1270.875366,189.789276 
	C1284.176270,181.279495 1297.580811,172.931747 1311.222168,164.276428 
z"/>
<path fill="#232323" opacity="1.000000" stroke="none" 
	d="
M1415.233643,208.265656 
	C1411.775024,210.397995 1408.654785,212.411606 1405.366821,214.098236 
	C1401.252197,216.208923 1399.169434,215.038208 1399.039795,210.517517 
	C1398.877930,204.870453 1398.655518,199.182465 1399.187378,193.581268 
	C1399.374023,191.614471 1401.328125,189.256042 1403.130859,188.090469 
	C1417.870972,178.559967 1432.730713,169.211853 1447.662354,159.983643 
	C1449.392700,158.914230 1452.109863,158.064743 1453.763184,158.697495 
	C1455.010986,159.174957 1455.778809,162.151901 1455.902832,164.071777 
	C1456.202515,168.706772 1455.740356,173.393661 1456.086914,178.022049 
	C1456.338257,181.377762 1454.759033,183.385178 1452.320312,184.926971 
	C1440.077026,192.667618 1427.777466,200.319046 1415.233643,208.265656 
z"/>
<path fill="#232323" opacity="1.000000" stroke="none" 
	d="
M914.970337,304.905914 
	C916.187805,303.311096 917.312866,301.253723 918.584045,301.159119 
	C923.717529,300.777191 928.900208,301.126526 934.056274,300.953217 
	C937.183716,300.848083 938.366882,302.183136 937.989136,305.110199 
	C937.281372,310.594604 936.560791,316.078339 935.753174,321.548676 
	C934.544006,329.738861 933.213196,337.911163 932.021179,346.103699 
	C931.551270,349.333160 931.460754,352.620453 930.934265,355.838348 
	C930.349182,359.414215 928.745056,361.599365 924.390442,361.105591 
	C920.116028,360.620911 915.743713,361.012726 911.414429,360.994781 
	C907.945740,360.980408 906.659790,358.897675 907.040955,355.808105 
	C907.936035,348.552002 908.988525,341.314484 910.042603,334.078949 
	C911.329956,325.242371 912.669556,316.413239 914.034973,307.588379 
	C914.155029,306.812439 914.633240,306.091888 914.970337,304.905914 
z"/>
<path fill="#232323" opacity="1.000000" stroke="none" 
	d="
M1009.683105,361.000000 
	C1005.224243,360.999969 1001.206482,360.745117 997.238220,361.078949 
	C993.944397,361.356018 992.485840,359.476074 992.110291,356.999756 
	C990.573547,346.865601 989.393005,336.678040 987.980225,326.524200 
	C987.198120,320.902832 986.458496,315.256927 985.263245,309.716248 
	C983.727722,302.597809 984.752319,301.001099 991.774597,301.000092 
	C995.104858,300.999603 998.488708,301.375458 1001.752686,300.910339 
	C1006.425110,300.244446 1008.287598,302.347900 1008.831421,306.570251 
	C1009.849976,314.479340 1010.945190,322.378601 1011.998474,330.283295 
	C1013.073669,338.351501 1013.938721,346.454315 1015.275940,354.478638 
	C1016.148560,359.715240 1015.660461,360.683197 1009.683105,361.000000 
z"/>
<path fill="#232323" opacity="1.000000" stroke="none" 
	d="
M1291.669678,129.262939 
	C1301.711792,132.224869 1306.406372,138.071426 1304.066162,148.543671 
	C1303.606445,150.600647 1303.970459,152.848770 1304.006470,155.007874 
	C1304.068115,158.710083 1302.106201,159.831680 1298.991821,158.451080 
	C1289.744751,154.351852 1280.537842,150.150101 1271.459473,145.694778 
	C1270.219604,145.086288 1269.197998,142.841339 1269.110352,141.295349 
	C1268.819092,136.161804 1268.924438,131.000000 1269.024292,125.851883 
	C1269.102661,121.813416 1271.737549,120.274605 1275.523071,121.949654 
	C1280.809937,124.289093 1286.076294,126.675125 1291.669678,129.262939 
z"/>
<path fill="#232323" opacity="1.000000" stroke="none" 
	d="
M1428.313965,132.728455 
	C1432.665771,134.068115 1434.469727,136.460434 1434.085571,140.872604 
	C1433.697632,145.328186 1434.097412,149.846603 1433.970825,154.332382 
	C1433.855347,158.425247 1431.458252,159.994705 1427.796509,158.284958 
	C1419.335693,154.334412 1410.858521,150.395874 1402.609375,146.033813 
	C1400.911255,145.135818 1399.379272,142.500809 1399.160767,140.513535 
	C1398.654907,135.913528 1398.962769,131.219589 1399.010132,126.564461 
	C1399.062134,121.461319 1400.909546,120.023247 1405.699829,122.081184 
	C1413.234131,125.317879 1420.575806,129.002975 1428.313965,132.728455 
z"/>
<path fill="#FFFFFF" opacity="1.000000" stroke="none" 
	d="
M1734.996582,255.791824 
	C1733.891113,256.849335 1732.793457,257.913605 1731.685303,257.924713 
	C1719.698486,258.045013 1707.709961,257.999786 1695.361084,257.999786 
	C1695.361084,234.509262 1695.361084,211.116455 1695.361084,187.361359 
	C1708.158081,187.361359 1721.223511,187.361359 1734.999634,187.361359 
	C1734.999634,209.843018 1734.999634,232.576309 1734.996582,255.791824 
z"/>
<path fill="#FFFFFF" opacity="1.000000" stroke="none" 
	d="
M1735.000000,341.959778 
	C1735.000000,345.099731 1735.000000,347.745148 1735.000000,350.694427 
	C1721.728027,350.694427 1708.665649,350.694427 1695.300537,350.694427 
	C1695.300537,327.721558 1695.300537,304.665070 1695.300537,281.303711 
	C1708.275513,281.303711 1721.338013,281.303711 1735.000000,281.303711 
	C1735.000000,301.303741 1735.000000,321.384491 1735.000000,341.959778 
z"/>
<path fill="#FFFFFF" opacity="1.000000" stroke="none" 
	d="
M1758.000000,215.000000 
	C1758.000000,205.524979 1758.000000,196.549957 1758.000000,186.562134 
	C1768.597656,187.046631 1778.947876,187.209671 1789.232300,188.117188 
	C1794.599121,188.590759 1796.861328,193.092331 1796.912598,197.930893 
	C1797.122192,217.742432 1797.000000,237.557480 1797.000000,257.685303 
	C1784.074341,257.685303 1771.339111,257.685303 1758.000000,257.685303 
	C1758.000000,243.689224 1758.000000,229.594620 1758.000000,215.000000 
z"/>
<path fill="#FFFFFF" opacity="1.000000" stroke="none" 
	d="
M1633.000000,203.105927 
	C1631.851318,190.880035 1638.163696,186.490311 1648.712402,186.942596 
	C1656.181519,187.262863 1663.673706,187.046402 1671.155518,187.083832 
	C1671.282837,187.084488 1671.409546,187.265839 1671.768311,187.539993 
	C1671.768311,210.724960 1671.768311,234.088287 1671.768311,257.726166 
	C1659.010742,257.726166 1646.296143,257.726166 1633.000000,257.726166 
	C1633.000000,239.702438 1633.000000,221.645706 1633.000000,203.105927 
z"/>
<path fill="#FFFFFF" opacity="1.000000" stroke="none" 
	d="
M1633.000000,323.000000 
	C1633.000000,308.865662 1633.000000,295.231323 1633.000000,281.299072 
	C1645.951294,281.299072 1658.679932,281.299072 1671.705322,281.299072 
	C1671.705322,304.289429 1671.705322,327.344879 1671.705322,350.700745 
	C1659.049072,350.700745 1646.320435,350.700745 1633.000000,350.700745 
	C1633.000000,341.683807 1633.000000,332.591919 1633.000000,323.000000 
z"/>
<path fill="#FFFFFF" opacity="1.000000" stroke="none" 
	d="
M1784.985596,351.000000 
	C1775.852173,351.000000 1767.215576,351.000000 1758.290527,351.000000 
	C1758.290527,327.701599 1758.290527,304.645721 1758.290527,281.294342 
	C1770.961304,281.294342 1783.690063,281.294342 1796.710449,281.294342 
	C1796.710449,304.300385 1796.710449,327.356262 1796.710449,351.000000 
	C1793.017944,351.000000 1789.250122,351.000000 1784.985596,351.000000 
z"/>
<path fill="#FFFFFF" opacity="1.000000" stroke="none" 
	d="
M1127.936279,236.000000 
	C1139.369507,236.207031 1139.116089,236.388000 1139.024292,225.461151 
	C1138.919556,213.000671 1139.000000,213.000000 1126.763550,213.000000 
	C1123.306763,213.000000 1119.849854,213.000000 1116.203857,213.000000 
	C1116.203857,204.302139 1116.203857,196.017624 1116.203857,186.609589 
	C1126.088379,187.057434 1136.119629,186.990738 1146.002686,188.169083 
	C1151.326416,188.803848 1153.980469,193.423691 1153.989380,198.714355 
	C1154.017944,215.546021 1154.029663,232.377853 1153.986572,249.209457 
	C1153.967285,256.729797 1149.612671,260.994171 1142.130859,260.998810 
	C1133.643311,261.004089 1125.155640,261.000000 1116.334351,261.000000 
	C1116.334351,252.784180 1116.334351,244.713394 1116.334351,236.000000 
	C1119.928955,236.000000 1123.690186,236.000000 1127.936279,236.000000 
z"/>
<path fill="#FFFFFF" opacity="1.000000" stroke="none" 
	d="
M1070.616211,234.102692 
	C1072.580444,234.940765 1074.200562,235.868942 1075.851196,235.927078 
	C1081.329590,236.120071 1086.819214,236.000000 1092.651978,236.000000 
	C1092.651978,244.180130 1092.651978,252.245163 1092.651978,260.978424 
	C1082.968262,260.978424 1073.053223,261.201691 1063.157227,260.867371 
	C1059.258911,260.735626 1055.070557,255.076248 1055.043335,250.509033 
	C1054.938477,232.865219 1054.900513,215.219543 1055.054321,197.576447 
	C1055.109009,191.315079 1060.181274,187.107819 1067.296387,187.023193 
	C1075.616333,186.924240 1083.938232,187.000061 1092.629639,187.000061 
	C1092.629639,195.466263 1092.629639,203.865829 1092.629639,213.000015 
	C1087.023926,213.000015 1081.096436,213.270157 1075.207397,212.910477 
	C1070.867798,212.645416 1069.652222,214.283813 1069.936523,218.356903 
	C1070.294556,223.485825 1070.190674,228.646973 1070.616211,234.102692 
z"/>
<path fill="#FFFFFF" opacity="1.000000" stroke="none" 
	d="
M1326.000000,342.946045 
	C1326.000000,336.151794 1326.000000,329.848877 1326.000000,323.274841 
	C1365.661987,323.274841 1405.048462,323.274841 1444.717773,323.274841 
	C1444.717773,332.322357 1444.717773,341.387787 1444.717773,350.728119 
	C1405.332031,350.728119 1365.945557,350.728119 1326.000000,350.728119 
	C1326.000000,348.307861 1326.000000,345.872620 1326.000000,342.946045 
z"/>
<path fill="#FFFFFF" opacity="1.000000" stroke="none" 
	d="
M1374.000000,300.000000 
	C1357.864136,300.000000 1342.228271,300.000000 1325.598877,300.000000 
	C1326.074829,294.076630 1326.187012,288.375519 1327.077759,282.798767 
	C1327.983276,277.130035 1332.211182,274.010986 1337.923584,274.007996 
	C1369.905151,273.991364 1401.886719,273.992218 1433.868286,274.006378 
	C1440.537720,274.009308 1444.957275,278.400085 1444.994629,285.005005 
	C1445.021851,289.811707 1445.000000,294.618652 1445.000000,300.000000 
	C1421.336914,300.000000 1397.918457,300.000000 1374.000000,300.000000 
z"/>
<path fill="#FFFFFF" opacity="1.000000" stroke="none" 
	d="
M1577.518555,473.013763 
	C1585.448364,474.469299 1590.366089,478.576965 1591.717407,486.337921 
	C1592.135620,488.739594 1592.628662,491.148712 1592.776855,493.573395 
	C1593.407959,503.910187 1593.586182,514.356995 1589.676758,524.064026 
	C1588.486084,527.020508 1584.489502,529.711365 1581.215454,530.749084 
	C1576.970459,532.094543 1572.134033,532.085754 1567.612915,531.775574 
	C1565.985107,531.663818 1563.230469,529.014832 1563.201050,527.481140 
	C1562.880737,510.836487 1562.880737,494.181030 1563.200073,477.536316 
	C1563.229492,475.997009 1565.840332,473.631439 1567.627808,473.198608 
	C1570.616211,472.474945 1573.907227,473.001678 1577.518555,473.013763 
z"/>
</svg>